<?xml version="1.0" encoding="utf-8"?><!-- Uploaded to: SVG Repo, www.svgrepo.com, Generator: SVG Repo Mixer Tools -->
<svg width="800px" height="800px" viewBox="0 0 24 24" fill="none" xmlns="http://www.w3.org/2000/svg">
<path d="M14.9532 10.25L14.9982 9.50138C14.9832 9.50048 14.9682 9.50003 14.9532 9.50003V10.25ZM15.8775 9.71581L15.2064 9.38107L15.2064 9.38107L15.8775 9.71581ZM15.7482 8.65603L16.3191 8.16966C16.315 8.16484 16.3108 8.16008 16.3066 8.15537L15.7482 8.65603ZM12.7842 5.35003L13.3426 4.84937L13.3415 4.84817L12.7842 5.35003ZM11.9892 5.00003L11.9829 5.75011L11.9954 5.75L11.9892 5.00003ZM11.1942 5.35003L10.6368 4.84816L10.6356 4.84947L11.1942 5.35003ZM8.23116 8.65603L7.67265 8.15547C7.66845 8.16014 7.66432 8.16487 7.66025 8.16966L8.23116 8.65603ZM8.10177 9.71581L8.77293 9.38107H8.77293L8.10177 9.71581ZM9.02616 10.25V9.50003C9.01113 9.50003 8.99611 9.50048 8.98111 9.50138L9.02616 10.25ZM12.7392 10.25C12.7392 9.83582 12.4034 9.50003 11.9892 9.50003C11.5749 9.50003 11.2392 9.83582 11.2392 10.25H12.7392ZM11.2392 19C11.2392 19.4142 11.5749 19.75 11.9892 19.75C12.4034 19.75 12.7392 19.4142 12.7392 19H11.2392ZM11.9892 11H14.9532V9.50003H11.9892V11ZM14.9081 10.9987C15.5956 11.04 16.2413 10.6669 16.5487 10.0505L15.2064 9.38107C15.1674 9.45928 15.0854 9.50663 14.9982 9.50138L14.9081 10.9987ZM16.5487 10.0505C16.8561 9.43423 16.7657 8.69392 16.3191 8.16966L15.1772 9.14241C15.2339 9.20893 15.2454 9.30287 15.2064 9.38107L16.5487 10.0505ZM16.3066 8.15537L13.3426 4.84937L12.2257 5.85069L15.1897 9.15669L16.3066 8.15537ZM13.3415 4.84817C12.9951 4.46352 12.5005 4.24576 11.9829 4.25006L11.9954 5.75C12.0835 5.74927 12.1678 5.78637 12.2268 5.85189L13.3415 4.84817ZM11.9954 4.25006C11.4778 4.24576 10.9832 4.46352 10.6368 4.84817L11.7515 5.85189C11.8105 5.78637 11.8948 5.74927 11.9829 5.75L11.9954 4.25006ZM10.6356 4.84947L7.67265 8.15547L8.78967 9.1566L11.7527 5.8506L10.6356 4.84947ZM7.66025 8.16966C7.21361 8.69392 7.12323 9.43423 7.43062 10.0505L8.77293 9.38107C8.73392 9.30287 8.74539 9.20893 8.80207 9.14241L7.66025 8.16966ZM7.43062 10.0505C7.738 10.6669 8.38373 11.04 9.07121 10.9987L8.98111 9.50138C8.89387 9.50663 8.81193 9.45928 8.77293 9.38107L7.43062 10.0505ZM9.02616 11H11.9892V9.50003H9.02616V11ZM11.2392 10.25V19H12.7392V10.25H11.2392Z" fill="#000000"/>
</svg>